<?xml version="1.0" encoding="utf-8"?>
<!-- Generator: Adobe Illustrator 20.1.0, SVG Export Plug-In . SVG Version: 6.00 Build 0)  -->
<svg version="1.1" id="Laag_1" xmlns="http://www.w3.org/2000/svg" xmlns:xlink="http://www.w3.org/1999/xlink" x="0px" y="0px"
	 viewBox="0 0 600 600" style="enable-background:new 0 0 600 600;" xml:space="preserve">
<style type="text/css">
	.st0{stroke:#FFFFFF;stroke-miterlimit:10;}
	.st1{fill:#FFFFFF;}
</style>
<rect x="18.7" y="18.6" class="st0" width="560" height="555.1"/>
<g>
	<path class="st1" d="M318,315.9c73.3-73.8,174.5-110.1,277.8-99.6l4.2-41.5c-79.7-8.1-158.2,8.7-226.3,46.9
		c36.8-67.9,52.9-146,45-225.1l-41.1,4.2c10.5,104-25.6,206-98.8,279.9c-73.3,73.8-174.5,110.1-277.8,99.6l-4.2,41.4
		c79.7,8.1,158.2-8.7,226.3-46.9c-36.8,67.9-52.9,146-45,225.1l41.1-4.2C208.7,491.8,244.7,389.8,318,315.9z"/>
	<path class="st1" d="M501.3,500.6c-21.8,22-32.5,52.3-29.4,83.3l41.1-4.2c-1.9-18.4,4.5-36.5,17.5-49.6
		c13-13.1,30.9-19.5,49.3-17.7L584,471C553.2,467.8,523.1,478.6,501.3,500.6z"/>
	<path class="st1" d="M431.1,429.9c-40.8,41.1-60.8,97.9-55,155.8l41.2-4.2c-4.6-45.4,11.2-89.9,43.1-122.1
		c32-32.2,76.1-48.1,121.2-43.5l4.1-41.5C528.3,368.6,471.9,388.8,431.1,429.9z"/>
	<path class="st1" d="M359.2,357.4c-62.7,63.2-93.5,150.5-84.6,239.5l41.1-4.2c-7.7-76.5,18.8-151.5,72.7-205.8
		c53.9-54.3,128.4-81,204.3-73.3l4.1-41.4C508.6,263.2,421.9,294.2,359.2,357.4z"/>
	<path class="st1" d="M95.4,96c21.8-22,32.5-52.3,29.4-83.3L83.7,17c1.9,18.4-4.5,36.5-17.5,49.6c-13,13.1-30.9,19.5-49.3,17.7
		l-4.1,41.4C43.5,128.9,73.6,118,95.4,96z"/>
	<path class="st1" d="M165.6,166.8c40.8-41.1,60.8-97.9,55-155.8l-41.2,4.2c4.6,45.4-11.2,89.9-43.1,122.1
		c-32,32.2-76.1,48.1-121.2,43.5L11,222.2C68.5,228.1,124.8,207.9,165.6,166.8z"/>
	<path class="st1" d="M237.6,239.2c62.7-63.2,93.5-150.5,84.6-239.5L281,3.9c7.7,76.5-18.8,151.5-72.7,205.8
		C154.4,264.1,80,290.8,4,283l-4.2,41.5C88.2,333.5,174.8,302.4,237.6,239.2z"/>
</g>
</svg>
